<mxfile host="65bd71144e">
    <diagram id="lB1h-7lxpASH3OdDRsPz" name="Page-1">
        <mxGraphModel dx="621" dy="1675" grid="1" gridSize="10" guides="1" tooltips="1" connect="1" arrows="1" fold="1" page="1" pageScale="1" pageWidth="850" pageHeight="1100" math="0" shadow="0">
            <root>
                <mxCell id="0"/>
                <mxCell id="1" parent="0"/>
                <mxCell id="tVhqEvvE7kMgc86qGGUo-36" value="" style="rounded=0;whiteSpace=wrap;html=1;fillColor=#a20025;strokeColor=#6F0000;fontColor=#ffffff;" parent="1" vertex="1">
                    <mxGeometry x="870" y="-580" width="500" height="1030" as="geometry"/>
                </mxCell>
                <mxCell id="pz9MaHcPiONFDGKfk24B-2" value="Actor" style="shape=umlActor;verticalLabelPosition=bottom;verticalAlign=top;html=1;outlineConnect=0;" parent="1" vertex="1">
                    <mxGeometry x="760" y="185" width="30" height="60" as="geometry"/>
                </mxCell>
                <mxCell id="pz9MaHcPiONFDGKfk24B-7" value="Employee" style="text;html=1;strokeColor=none;fillColor=none;align=center;verticalAlign=middle;whiteSpace=wrap;rounded=0;" parent="1" vertex="1">
                    <mxGeometry x="735" y="-205" width="60" height="30" as="geometry"/>
                </mxCell>
                <mxCell id="pz9MaHcPiONFDGKfk24B-8" value="Student" style="text;html=1;strokeColor=none;fillColor=none;align=center;verticalAlign=middle;whiteSpace=wrap;rounded=0;" parent="1" vertex="1">
                    <mxGeometry x="750" y="270" width="60" height="30" as="geometry"/>
                </mxCell>
                <mxCell id="pz9MaHcPiONFDGKfk24B-9" value="kiemTraThongTin" style="ellipse;whiteSpace=wrap;html=1;" parent="1" vertex="1">
                    <mxGeometry x="960" y="-375" width="120" height="80" as="geometry"/>
                </mxCell>
                <mxCell id="pz9MaHcPiONFDGKfk24B-12" value="xoaKhoaHoc" style="ellipse;whiteSpace=wrap;html=1;" parent="1" vertex="1">
                    <mxGeometry x="955" y="-175" width="120" height="80" as="geometry"/>
                </mxCell>
                <mxCell id="pz9MaHcPiONFDGKfk24B-21" value="inBaoCaoThongKe" style="ellipse;whiteSpace=wrap;html=1;" parent="1" vertex="1">
                    <mxGeometry x="960" y="25" width="120" height="80" as="geometry"/>
                </mxCell>
                <mxCell id="pz9MaHcPiONFDGKfk24B-23" value="suaThongTinKhoaHoc" style="ellipse;whiteSpace=wrap;html=1;" parent="1" vertex="1">
                    <mxGeometry x="955" y="-75" width="135" height="85" as="geometry"/>
                </mxCell>
                <mxCell id="tVhqEvvE7kMgc86qGGUo-2" value="" style="endArrow=classic;html=1;rounded=0;entryX=0;entryY=0.5;entryDx=0;entryDy=0;" parent="1" source="pz9MaHcPiONFDGKfk24B-4" target="pz9MaHcPiONFDGKfk24B-9" edge="1">
                    <mxGeometry width="50" height="50" relative="1" as="geometry">
                        <mxPoint x="925" y="-75" as="sourcePoint"/>
                        <mxPoint x="975" y="-125" as="targetPoint"/>
                    </mxGeometry>
                </mxCell>
                <mxCell id="tVhqEvvE7kMgc86qGGUo-3" value="" style="endArrow=classic;html=1;rounded=0;entryX=0;entryY=0.5;entryDx=0;entryDy=0;exitX=1;exitY=0.3333333333333333;exitDx=0;exitDy=0;exitPerimeter=0;" parent="1" source="pz9MaHcPiONFDGKfk24B-4" target="tVhqEvvE7kMgc86qGGUo-79" edge="1">
                    <mxGeometry width="50" height="50" relative="1" as="geometry">
                        <mxPoint x="760" y="-250.45454545454538" as="sourcePoint"/>
                        <mxPoint x="944.7199999999998" y="-249.79999999999973" as="targetPoint"/>
                    </mxGeometry>
                </mxCell>
                <mxCell id="tVhqEvvE7kMgc86qGGUo-4" value="" style="endArrow=classic;html=1;rounded=0;entryX=0;entryY=0.5;entryDx=0;entryDy=0;" parent="1" target="pz9MaHcPiONFDGKfk24B-12" edge="1">
                    <mxGeometry width="50" height="50" relative="1" as="geometry">
                        <mxPoint x="755" y="-265" as="sourcePoint"/>
                        <mxPoint x="975" y="-314.9999999999999" as="targetPoint"/>
                    </mxGeometry>
                </mxCell>
                <mxCell id="tVhqEvvE7kMgc86qGGUo-6" value="" style="endArrow=classic;html=1;rounded=0;entryX=-0.008;entryY=0.333;entryDx=0;entryDy=0;entryPerimeter=0;startArrow=none;" parent="1" source="pz9MaHcPiONFDGKfk24B-4" target="pz9MaHcPiONFDGKfk24B-23" edge="1">
                    <mxGeometry width="50" height="50" relative="1" as="geometry">
                        <mxPoint x="755" y="-255" as="sourcePoint"/>
                        <mxPoint x="995" y="-55" as="targetPoint"/>
                    </mxGeometry>
                </mxCell>
                <mxCell id="tVhqEvvE7kMgc86qGGUo-7" value="" style="endArrow=classic;html=1;rounded=0;entryX=0;entryY=0.5;entryDx=0;entryDy=0;" parent="1" target="pz9MaHcPiONFDGKfk24B-21" edge="1">
                    <mxGeometry width="50" height="50" relative="1" as="geometry">
                        <mxPoint x="755" y="-245" as="sourcePoint"/>
                        <mxPoint x="845" y="55" as="targetPoint"/>
                    </mxGeometry>
                </mxCell>
                <mxCell id="tVhqEvvE7kMgc86qGGUo-21" value="canhBao" style="ellipse;whiteSpace=wrap;html=1;" parent="1" vertex="1">
                    <mxGeometry x="1205" y="300" width="70" height="40" as="geometry"/>
                </mxCell>
                <mxCell id="tVhqEvvE7kMgc86qGGUo-22" value="&amp;lt;&amp;lt;extend&amp;gt;&amp;gt;" style="html=1;verticalAlign=bottom;labelBackgroundColor=none;endArrow=open;endFill=0;dashed=1;rounded=0;exitX=0;exitY=0;exitDx=0;exitDy=0;" parent="1" source="tVhqEvvE7kMgc86qGGUo-21" target="tVhqEvvE7kMgc86qGGUo-78" edge="1">
                    <mxGeometry width="160" relative="1" as="geometry">
                        <mxPoint x="1105" y="-100" as="sourcePoint"/>
                        <mxPoint x="1104.1399999999999" y="-176.65999999999985" as="targetPoint"/>
                    </mxGeometry>
                </mxCell>
                <mxCell id="tVhqEvvE7kMgc86qGGUo-31" value="kiemTraThongTinCacKhoaHoc" style="ellipse;whiteSpace=wrap;html=1;" parent="1" vertex="1">
                    <mxGeometry x="1030" y="-500" width="170" height="80" as="geometry"/>
                </mxCell>
                <mxCell id="tVhqEvvE7kMgc86qGGUo-32" value="" style="endArrow=classic;html=1;rounded=0;entryX=0.5;entryY=0;entryDx=0;entryDy=0;" parent="1" source="tVhqEvvE7kMgc86qGGUo-31" target="pz9MaHcPiONFDGKfk24B-9" edge="1">
                    <mxGeometry width="50" height="50" relative="1" as="geometry">
                        <mxPoint x="1065" y="-295" as="sourcePoint"/>
                        <mxPoint x="1115" y="-345" as="targetPoint"/>
                    </mxGeometry>
                </mxCell>
                <mxCell id="tVhqEvvE7kMgc86qGGUo-33" value="kiemTraSoLuongSinhVien" style="ellipse;whiteSpace=wrap;html=1;" parent="1" vertex="1">
                    <mxGeometry x="1190" y="-420" width="150" height="70" as="geometry"/>
                </mxCell>
                <mxCell id="tVhqEvvE7kMgc86qGGUo-34" value="" style="endArrow=classic;html=1;rounded=0;exitX=0;exitY=1;exitDx=0;exitDy=0;entryX=1;entryY=0;entryDx=0;entryDy=0;" parent="1" source="tVhqEvvE7kMgc86qGGUo-33" target="pz9MaHcPiONFDGKfk24B-9" edge="1">
                    <mxGeometry width="50" height="50" relative="1" as="geometry">
                        <mxPoint x="1065" y="-285" as="sourcePoint"/>
                        <mxPoint x="1115" y="-335" as="targetPoint"/>
                    </mxGeometry>
                </mxCell>
                <mxCell id="tVhqEvvE7kMgc86qGGUo-40" value="Hệ Thống&amp;nbsp; đăng ký khóa học online" style="text;html=1;strokeColor=none;fillColor=none;align=center;verticalAlign=middle;whiteSpace=wrap;rounded=0;" parent="1" vertex="1">
                    <mxGeometry x="1010" y="-565" width="220" height="30" as="geometry"/>
                </mxCell>
                <mxCell id="tVhqEvvE7kMgc86qGGUo-66" style="edgeStyle=orthogonalEdgeStyle;rounded=0;orthogonalLoop=1;jettySize=auto;html=1;exitX=0.5;exitY=1;exitDx=0;exitDy=0;" parent="1" edge="1">
                    <mxGeometry relative="1" as="geometry">
                        <mxPoint x="1085" y="460" as="sourcePoint"/>
                        <mxPoint x="1085" y="460" as="targetPoint"/>
                    </mxGeometry>
                </mxCell>
                <mxCell id="tVhqEvvE7kMgc86qGGUo-68" value="huyKhoaHoc" style="ellipse;whiteSpace=wrap;html=1;" parent="1" vertex="1">
                    <mxGeometry x="980" y="270" width="155" height="80" as="geometry"/>
                </mxCell>
                <mxCell id="tVhqEvvE7kMgc86qGGUo-78" value="&lt;span&gt;&lt;br&gt;&lt;/span&gt;dangKyKhoaHoc&lt;br&gt;&lt;br&gt;&lt;span&gt;extend point:&lt;/span&gt;&lt;br&gt;&lt;span&gt;Đăng kí quá nhiều tính chỉ&lt;br&gt;cho phép&lt;br&gt;&lt;/span&gt;" style="shape=lineEllipse;perimeter=ellipsePerimeter;whiteSpace=wrap;html=1;backgroundOutline=1;" parent="1" vertex="1">
                    <mxGeometry x="960" y="170" width="180" height="90" as="geometry"/>
                </mxCell>
                <mxCell id="tVhqEvvE7kMgc86qGGUo-79" value="themKhoaHoc" style="ellipse;whiteSpace=wrap;html=1;" parent="1" vertex="1">
                    <mxGeometry x="960" y="-270" width="120" height="80" as="geometry"/>
                </mxCell>
                <mxCell id="tVhqEvvE7kMgc86qGGUo-81" value="" style="endArrow=none;html=1;rounded=0;" parent="1" edge="1">
                    <mxGeometry width="50" height="50" relative="1" as="geometry">
                        <mxPoint x="890" y="150" as="sourcePoint"/>
                        <mxPoint x="1270" y="140" as="targetPoint"/>
                    </mxGeometry>
                </mxCell>
                <mxCell id="_JqN_RBT8FjLGJyVjGAs-5" value="dangNhap" style="ellipse;whiteSpace=wrap;html=1;" parent="1" vertex="1">
                    <mxGeometry x="1160" y="-190" width="160" height="80" as="geometry"/>
                </mxCell>
                <mxCell id="_JqN_RBT8FjLGJyVjGAs-8" value="xemKhoaHocDaDangKy" style="ellipse;whiteSpace=wrap;html=1;" parent="1" vertex="1">
                    <mxGeometry x="985" y="360" width="145" height="80" as="geometry"/>
                </mxCell>
                <mxCell id="_JqN_RBT8FjLGJyVjGAs-11" value="&amp;lt;&amp;lt;include&amp;gt;&amp;gt;" style="html=1;verticalAlign=bottom;labelBackgroundColor=none;endArrow=open;endFill=0;dashed=1;rounded=0;exitX=0.961;exitY=0.692;exitDx=0;exitDy=0;exitPerimeter=0;" parent="1" source="pz9MaHcPiONFDGKfk24B-9" target="_JqN_RBT8FjLGJyVjGAs-5" edge="1">
                    <mxGeometry width="160" relative="1" as="geometry">
                        <mxPoint x="910" y="-40" as="sourcePoint"/>
                        <mxPoint x="1070" y="-40" as="targetPoint"/>
                    </mxGeometry>
                </mxCell>
                <mxCell id="_JqN_RBT8FjLGJyVjGAs-12" value="&amp;lt;&amp;lt;include&amp;gt;&amp;gt;" style="html=1;verticalAlign=bottom;labelBackgroundColor=none;endArrow=open;endFill=0;dashed=1;rounded=0;exitX=1;exitY=0.5;exitDx=0;exitDy=0;entryX=0.054;entryY=0.288;entryDx=0;entryDy=0;entryPerimeter=0;" parent="1" source="tVhqEvvE7kMgc86qGGUo-79" target="_JqN_RBT8FjLGJyVjGAs-5" edge="1">
                    <mxGeometry width="160" relative="1" as="geometry">
                        <mxPoint x="1085.3199999999997" y="-309.6400000000001" as="sourcePoint"/>
                        <mxPoint x="1215.1551257516335" y="-176.00637005664544" as="targetPoint"/>
                    </mxGeometry>
                </mxCell>
                <mxCell id="_JqN_RBT8FjLGJyVjGAs-13" value="&amp;lt;&amp;lt;include&amp;gt;&amp;gt;" style="html=1;verticalAlign=bottom;labelBackgroundColor=none;endArrow=open;endFill=0;dashed=1;rounded=0;exitX=1;exitY=0.5;exitDx=0;exitDy=0;entryX=0;entryY=0.5;entryDx=0;entryDy=0;" parent="1" source="pz9MaHcPiONFDGKfk24B-12" target="_JqN_RBT8FjLGJyVjGAs-5" edge="1">
                    <mxGeometry width="160" relative="1" as="geometry">
                        <mxPoint x="1095.3199999999997" y="-299.6400000000001" as="sourcePoint"/>
                        <mxPoint x="1225.1551257516335" y="-166.00637005664544" as="targetPoint"/>
                    </mxGeometry>
                </mxCell>
                <mxCell id="_JqN_RBT8FjLGJyVjGAs-14" value="&amp;lt;&amp;lt;include&amp;gt;&amp;gt;" style="html=1;verticalAlign=bottom;labelBackgroundColor=none;endArrow=open;endFill=0;dashed=1;rounded=0;exitX=1;exitY=0.5;exitDx=0;exitDy=0;entryX=0;entryY=1;entryDx=0;entryDy=0;" parent="1" source="pz9MaHcPiONFDGKfk24B-23" target="_JqN_RBT8FjLGJyVjGAs-5" edge="1">
                    <mxGeometry width="160" relative="1" as="geometry">
                        <mxPoint x="1105.3199999999997" y="-289.6400000000001" as="sourcePoint"/>
                        <mxPoint x="1235.1551257516335" y="-156.00637005664544" as="targetPoint"/>
                    </mxGeometry>
                </mxCell>
                <mxCell id="_JqN_RBT8FjLGJyVjGAs-15" value="&amp;lt;&amp;lt;include&amp;gt;&amp;gt;" style="html=1;verticalAlign=bottom;labelBackgroundColor=none;endArrow=open;endFill=0;dashed=1;rounded=0;exitX=1;exitY=0.5;exitDx=0;exitDy=0;entryX=0.5;entryY=1;entryDx=0;entryDy=0;" parent="1" source="pz9MaHcPiONFDGKfk24B-21" target="_JqN_RBT8FjLGJyVjGAs-5" edge="1">
                    <mxGeometry width="160" relative="1" as="geometry">
                        <mxPoint x="1115.3199999999997" y="-279.6400000000001" as="sourcePoint"/>
                        <mxPoint x="1245.1551257516335" y="-146.00637005664544" as="targetPoint"/>
                    </mxGeometry>
                </mxCell>
                <mxCell id="_JqN_RBT8FjLGJyVjGAs-17" value="&amp;lt;&amp;lt;include&amp;gt;&amp;gt;" style="html=1;verticalAlign=bottom;labelBackgroundColor=none;endArrow=open;endFill=0;dashed=1;rounded=0;exitX=1;exitY=0.5;exitDx=0;exitDy=0;entryX=0.721;entryY=1.016;entryDx=0;entryDy=0;entryPerimeter=0;" parent="1" source="tVhqEvvE7kMgc86qGGUo-68" target="_JqN_RBT8FjLGJyVjGAs-5" edge="1">
                    <mxGeometry width="160" relative="1" as="geometry">
                        <mxPoint x="910" y="140" as="sourcePoint"/>
                        <mxPoint x="1070" y="140" as="targetPoint"/>
                    </mxGeometry>
                </mxCell>
                <mxCell id="_JqN_RBT8FjLGJyVjGAs-19" value="" style="endArrow=classic;html=1;rounded=0;exitX=0.5;exitY=0.5;exitDx=0;exitDy=0;exitPerimeter=0;entryX=0;entryY=0.5;entryDx=0;entryDy=0;" parent="1" source="pz9MaHcPiONFDGKfk24B-2" target="tVhqEvvE7kMgc86qGGUo-78" edge="1">
                    <mxGeometry width="50" height="50" relative="1" as="geometry">
                        <mxPoint x="970" y="160" as="sourcePoint"/>
                        <mxPoint x="960" y="210" as="targetPoint"/>
                    </mxGeometry>
                </mxCell>
                <mxCell id="_JqN_RBT8FjLGJyVjGAs-20" value="" style="endArrow=classic;html=1;rounded=0;exitX=0.5;exitY=0.5;exitDx=0;exitDy=0;exitPerimeter=0;entryX=0;entryY=0.5;entryDx=0;entryDy=0;" parent="1" source="pz9MaHcPiONFDGKfk24B-2" target="tVhqEvvE7kMgc86qGGUo-68" edge="1">
                    <mxGeometry width="50" height="50" relative="1" as="geometry">
                        <mxPoint x="735" y="210" as="sourcePoint"/>
                        <mxPoint x="970.0000000000059" y="225" as="targetPoint"/>
                    </mxGeometry>
                </mxCell>
                <mxCell id="_JqN_RBT8FjLGJyVjGAs-21" value="" style="endArrow=classic;html=1;rounded=0;exitX=0.5;exitY=0.5;exitDx=0;exitDy=0;exitPerimeter=0;entryX=0;entryY=0.5;entryDx=0;entryDy=0;" parent="1" source="pz9MaHcPiONFDGKfk24B-2" target="_JqN_RBT8FjLGJyVjGAs-8" edge="1">
                    <mxGeometry width="50" height="50" relative="1" as="geometry">
                        <mxPoint x="745" y="220" as="sourcePoint"/>
                        <mxPoint x="980.0000000000059" y="235" as="targetPoint"/>
                    </mxGeometry>
                </mxCell>
                <mxCell id="_JqN_RBT8FjLGJyVjGAs-22" value="&amp;lt;&amp;lt;include&amp;gt;&amp;gt;" style="html=1;verticalAlign=bottom;labelBackgroundColor=none;endArrow=open;endFill=0;dashed=1;rounded=0;exitX=1;exitY=0.5;exitDx=0;exitDy=0;entryX=1;entryY=1;entryDx=0;entryDy=0;" parent="1" source="_JqN_RBT8FjLGJyVjGAs-8" target="_JqN_RBT8FjLGJyVjGAs-5" edge="1">
                    <mxGeometry width="160" relative="1" as="geometry">
                        <mxPoint x="1145.000000000011" y="320" as="sourcePoint"/>
                        <mxPoint x="1285.3600000000001" y="-98.72000000000003" as="targetPoint"/>
                    </mxGeometry>
                </mxCell>
                <mxCell id="pz9MaHcPiONFDGKfk24B-4" value="Actor" style="shape=umlActor;verticalLabelPosition=bottom;verticalAlign=top;html=1;outlineConnect=0;" parent="1" vertex="1">
                    <mxGeometry x="750" y="-285" width="30" height="60" as="geometry"/>
                </mxCell>
                <mxCell id="_JqN_RBT8FjLGJyVjGAs-23" value="" style="endArrow=none;html=1;rounded=0;entryX=-0.008;entryY=0.333;entryDx=0;entryDy=0;entryPerimeter=0;" parent="1" target="pz9MaHcPiONFDGKfk24B-4" edge="1">
                    <mxGeometry width="50" height="50" relative="1" as="geometry">
                        <mxPoint x="755" y="-255" as="sourcePoint"/>
                        <mxPoint x="953.9200000000001" y="-46.695000000000164" as="targetPoint"/>
                    </mxGeometry>
                </mxCell>
                <mxCell id="_JqN_RBT8FjLGJyVjGAs-24" value="Đăng Ký Mã SV" style="ellipse;whiteSpace=wrap;html=1;" parent="1" vertex="1">
                    <mxGeometry x="1220" y="170" width="120" height="80" as="geometry"/>
                </mxCell>
                <mxCell id="_JqN_RBT8FjLGJyVjGAs-25" value="&amp;lt;&amp;lt;include&amp;gt;&amp;gt;" style="html=1;verticalAlign=bottom;labelBackgroundColor=none;endArrow=open;endFill=0;dashed=1;rounded=0;exitX=1;exitY=0.5;exitDx=0;exitDy=0;entryX=0;entryY=0.5;entryDx=0;entryDy=0;" parent="1" source="tVhqEvvE7kMgc86qGGUo-78" target="_JqN_RBT8FjLGJyVjGAs-24" edge="1">
                    <mxGeometry width="160" relative="1" as="geometry">
                        <mxPoint x="1085.3199999999997" y="-309.6400000000001" as="sourcePoint"/>
                        <mxPoint x="1215.1551257516335" y="-176.00637005664544" as="targetPoint"/>
                    </mxGeometry>
                </mxCell>
                <mxCell id="2" value="&lt;p style=&quot;margin:0px;margin-top:4px;text-align:center;&quot;&gt;&lt;b&gt;Class&lt;/b&gt;&lt;/p&gt;&lt;hr size=&quot;1&quot;/&gt;&lt;div style=&quot;height:2px;&quot;&gt;&lt;/div&gt;&lt;hr size=&quot;1&quot;/&gt;&lt;div style=&quot;height:2px;&quot;&gt;&lt;/div&gt;" style="verticalAlign=top;align=left;overflow=fill;fontSize=12;fontFamily=Helvetica;html=1;" vertex="1" parent="1">
                    <mxGeometry x="1400" y="-205" width="520" height="305" as="geometry"/>
                </mxCell>
            </root>
        </mxGraphModel>
    </diagram>
</mxfile>